<?xml version="1.0" standalone="no"?>
<!DOCTYPE svg PUBLIC "-//W3C//DTD SVG 1.1//EN" "http://www.w3.org/Graphics/SVG/1.1/DTD/svg11.dtd" >
<svg>
<metadata>
Created by FontForge 20120731 at Sat Apr 27 06:45:41 2013
 By Jenkins
</metadata>
<defs>
<font id="font3933" horiz-adv-x="1024" >
  <font-face 
    font-family="PulsarJS"
    font-weight="400"
    font-stretch="normal"
    units-per-em="1024"
    panose-1="2 0 5 9 0 0 0 0 0 0"
    ascent="819"
    descent="-205"
    x-height="746"
    cap-height="935"
    bbox="0 0 1000 1024"
    underline-thickness="0"
    underline-position="0"
    unicode-range="U+0023-2260"
  />
<missing-glyph 
d="M0 0h1000v1024h-1000v-1024z" />
    <glyph glyph-name=".notdef" 
d="M0 0h1000v1024h-1000v-1024z" />
    <glyph glyph-name=".notdef" 
d="M0 0h1000v1024h-1000v-1024z" />
    <glyph glyph-name=".null" horiz-adv-x="0" 
 />
    <glyph glyph-name="nonmarkingreturn" 
 />
    <glyph glyph-name="map" unicode="A" 
d="M900 173q-122 -32 -243 -64v707q121 32 243 64v-707zM343 943v-708q-121 -57 -243 -113v707q122 57 243 114zM378 943l244 -126v-707l-244 125v708v0z" />
    <glyph glyph-name="clock" unicode="B" 
d="M768 790q110 -110 110 -266t-110 -266t-265 -110t-266 110q-109 110 -109 266t109 266q111 110 266 110t265 -110zM731 295q95 94 95 228.5t-95 229.5q-94 95 -228 95t-229 -95q-94 -95 -94 -229.5t94 -228.5q95 -96 229 -96t228 96zM698 590q6 -3 8 -10q1 -7 -2 -13
t-10 -8l-130 -38l-4 -1q-2 -20 -16 -35q-18 -17 -41 -17t-40 17q-16 16 -16 39.5t16 40.5q10 10 23 14v2v204q0 7 5 12t12 5t12 -5t5 -12v-204v-2q13 -4 24 -14q5 -6 9 -12h1l131 38q6 2 13 -1v0z" />
    <glyph glyph-name="dialog" unicode="C" 
d="M980 434q0 -75 -54.5 -129t-130.5 -54h-343q-102 -84 -204 -167q-17 -14 -30 -8t-13 28v147q-76 0 -130.5 54t-54.5 129v257q0 75 55 129q54 54 130 54h590q76 0 130 -54q55 -54 55 -129v-257v0z" />
    <glyph glyph-name="chat" unicode="D" 
d="M912 619q38 -38 38 -89v-178q0 -52 -38 -89q-37 -38 -88 -38v-102q0 -14 -8 -18q-9 -4 -21 5l-138 115h-232q-50 0 -88 38q-37 37 -37 89v46q22 17 43 35h221q63 0 108 46q1 0 1 1q46 45 46 110v66h105q51 0 88 -37zM658 590q0 -40 -28 -68t-66 -28h-243l-126 -105v104
l-30 1q-39 0 -67 28q-5 4 -9 10q-19 25 -19 58v178q0 32 19 58l8 10h1q28 28 67 28h399q38 0 66 -28v0q28 -29 28 -68v-178v0z" />
    <glyph glyph-name="user" unicode="E" 
d="M263 324h451q242 0 256 -300h-960q12 300 253 300zM682 847q77 -75 77 -184q0 -107 -77 -185q-77 -76 -185 -76t-185 76q-77 78 -77 185q0 109 77 184q77 77 185 77t185 -77v0z" />
    <glyph glyph-name="users" unicode="F" 
d="M689 766q27 18 61 17q48 0 83 -34v0q34 -34 34 -83q0 -48 -34 -83v0q-35 -34 -83 -34q-31 0 -56 14q22 44 22 98q0 59 -27 105zM679 661q0 -49 -22 -88q-12 -22 -30 -41q-54 -54 -128 -54q-76 0 -129 54q-14 14 -24 29q-29 44 -29 100t29 99q10 16 24 29v0q54 55 129 55
q74 0 128 -55q16 -16 27 -34q25 -41 25 -94zM797 317q16 -36 22 -86h-641q5 48 20 83v0q37 84 136 84h328q97 0 135 -81v0zM836 324q-44 112 -174 112h-107q33 9 62 30q9 2 20 2h213q114 0 120 -144h-134zM308 768q-29 -47 -29 -107t29 -108q-21 -10 -47 -10q-48 0 -82 35v0
q-35 34 -35 82q0 49 35 84v0q34 34 82 34q26 0 47 -10zM160 321h-110q4 144 120 144h213q27 -20 59 -29h-108q-132 0 -174 -115v0z" />
    <glyph glyph-name="reload" unicode="G" 
d="M512 791q-111 0 -189 -79q-79 -78 -79 -189t79 -188q78 -79 189 -79t189 79q17 17 32 37q18 25 28 53l93 -32q-6 -18 -9 -21q-27 -58 -75 -106q-107 -107 -258 -107t-258 107q-107 106 -107 257t107 258t258 107t258 -107q27 -27 48 -58l91 53l-43 -244l-234 85
q50 29 101 57q-15 21 -32 38q-78 79 -189 79v0z" />
    <glyph glyph-name="search" unicode="H" 
d="M475 846q-77 21 -148 -20q-69 -41 -89 -118q-22 -78 18 -148v2q41 -72 118 -92q79 -21 148 20h2q70 40 90 118q20 77 -20 147t-119 91zM664 795v1q59 -100 29 -210q-19 -68 -65 -118l176 -253q11 -19 -5 -49q-17 -28 -39 -40q-22 -14 -52 -12q-34 0 -45 20l-130 269
q-85 -37 -179 -12q-112 30 -170 129q-56 100 -26 210q30 108 128 166v1q101 56 211 27q112 -29 167 -129v0z" />
    <glyph glyph-name="pin" unicode="I" 
d="M700 852q82 -83 82 -195q0 -94 -140 -329l-139 -214q-70 96 -141 212q-140 233 -140 331q0 118 82 199q81 79 199 79q115 0 197 -83zM608 560q46 44 46 109q0 63 -46 109q-46 45 -110.5 45t-111.5 -45q-46 -46 -46 -109q0 -65 46 -109q47 -47 111.5 -47t110.5 47v0z" />
    <glyph glyph-name="star" unicode="J" 
d="M673 696l202 -39q31 -5 41 -32q8 -25 -14 -50l-140 -149q-6 -6 -10 -19q-4 -11 -3 -20l25 -204q3 -26 -11 -42q-22 -24 -59 -9l-185 87q-8 4 -21 4q-12 0 -20 -4l-187 -87q-12 -6 -24 -6q-21 0 -34 15q-14 16 -12 42l26 204q2 8 -3 20q-4 12 -9 19l-141 149
q-22 24 -13 50q7 27 40 32l201 39q9 1 19.5 8.5t13.5 14.5l97 174q17 33 46 33q19 0 34 -15q9 -10 14 -20l94 -172q5 -7 15.5 -14.5t17.5 -8.5v0z" />
    <glyph glyph-name="heart" unicode="K" 
d="M119 743q17 39 50 69q31 30 71 45.5t82 14.5q10 0 21 -2q62 -8 104 -40q32 -26 50 -66q18 40 51 66q40 32 102 40q44 5 86 -7t76 -39q36 -29 57 -68q23 -42 27 -92q10 -113 -77 -236q-101 -143 -320 -276q0 1 -2 1q-1 0 -2 -1q-212 128 -315 268q-87 120 -83 231
q2 49 22 92v0z" />
    <glyph glyph-name="caution" unicode="L" 
d="M464 353q-14 -13 -14 -33q0 -22 14 -37q15 -14 36 -14q20 0 34 14q14 15 14 37q0 19 -14 33q-14 16 -34 16q-21 0 -36 -16zM537 643q0 15 -12 27q-10 10 -25 10q-17 0 -27 -10q-12 -12 -12 -27v-175q0 -16 12 -27q10 -11 27 -11q15 0 25 11q12 11 12 27v175zM498 893
q39 0 64 -45l347 -586q27 -44 10 -76q-17 -31 -69 -31h-700q-52 0 -69 31q-18 32 9 76l345 586q26 45 63 45v0z" />
    <glyph glyph-name="add" unicode="M" 
d="M500 924q167 0 283 -117q117 -118 117 -283q0 -166 -117 -283q-116 -117 -283 -117q-166 0 -282 117q-118 117 -118 283q0 165 118 283q116 117 282 117zM563 711q0 7 -5.5 12.5t-12.5 5.5h-89q-7 0 -13 -6q-5 -5 -5 -12v-107q0 -8 -5 -12q-6 -6 -13 -6h-106q-8 0 -13 -6
q-5 -4 -5 -12v-88q0 -8 5 -13t13 -5h106q7 0 13 -6q5 -5 5 -12v-107q0 -7 5 -13q6 -4 13 -4h89q7 0 12 4q6 6 6 13v107q0 7 5 12q5 6 12 6h107q7 0 12 5q6 5 6 13v88q0 8 -6 12q-5 6 -12 6h-107q-7 0 -12 6q-5 4 -5 12v107v0z" />
    <glyph glyph-name="remove" unicode="N" 
d="M301 467q5 -5 13 -5h373q7 0 13 5q4 5 4 13v88q0 8 -4 13q-6 5 -13 5h-373q-8 0 -13 -5t-5 -13v-88q0 -8 5 -13zM218 807q117 117 282 117q166 0 283 -117t117 -283t-117 -282q-117 -118 -283 -118q-165 0 -282 118q-118 116 -118 282t118 283v0z" />
    <glyph glyph-name="help" unicode="O" 
d="M900 524q0 -166 -117 -282q-116 -118 -283 -118q-165 0 -282 118q-118 116 -118 282t118 283q117 117 282 117q167 0 283 -117q117 -117 117 -283zM332 644q0 -26 18 -40q16 -14 41 -14q30 0 51.5 56.5t55.5 56.5q32 0 50 -24q14 -18 14 -37q0 -12 -17 -34l-38 -44
q-55 -66 -55 -122q0 -28 18 -43q15 -11 39 -11q36 0 46 36q14 54 27 68q24 26 62 64q25 32 25 73q0 67 -40 119q-47 61 -127 61q-45 0 -94 -27q-76 -45 -76 -138zM453 257q18 -18 44 -18t45 18q18 19 18 45t-18 44q-19 18 -45 18t-44 -18t-18 -44t18 -45v0z" />
    <glyph glyph-name="info" unicode="P" 
d="M900 524q0 -166 -117 -282q-116 -118 -283 -118q-165 0 -282 118q-118 116 -118 282t118 283q117 117 282 117q167 0 283 -117q117 -117 117 -283zM437 632q26 -26 63 -26t63 26t26 63t-26 63t-63 26t-63 -26t-26 -63t26 -63zM502 584q-40 0 -57 -32q-29 -57 -13 -220
q3 -42 29 -59q14 -9 34 -9q47 0 58 22q15 28 15 138q0 98 -22 135q-15 25 -44 25v0z" />
    <glyph glyph-name="check" unicode="Q" 
d="M815 830q18 19 44 20t45 -16q18 -17 20 -43q1 -25 -17 -44l-480 -529q-11 -13 -29 -18t-36 1q-16 6 -29 20l-243 298q-16 20 -14 45q3 26 23 43q19 16 45 13q25 -2 42 -22l199 -169l430 401v0z" />
    <glyph glyph-name="minus" unicode="R" 
d="M264 456q-6 6 -6 15v105q0 8 6 15q6 6 15 6h443q9 0 15 -6q6 -7 6 -15v-105q0 -9 -6 -15t-15 -6h-443q-9 0 -15 6v0z" />
    <glyph glyph-name="close" unicode="S" 
d="M516 651l95 95q7 6 16 6q10 0 16 -6l79 -80q7 -6 7 -15.5t-7 -15.5l-95 -95q-6 -7 -6 -16t7 -16l95 -95q6 -6 6 -16t-7 -16l-79 -79q-6 -6 -16 -7q-9 1 -15 7l-95 95q-7 6 -16 7q-10 -1 -16 -7l-96 -95q-6 -6 -15 -7q-10 1 -16 7l-79 79q-7 6 -7 16t6 16l95 95q7 7 7 16
t-6 16l-95 95q-7 6 -7 15.5t7 15.5l79 80q6 6 16 6q9 0 16 -6l95 -95q6 -7 16 -7q9 0 15 7v0z" />
    <glyph glyph-name="plus" unicode="T" 
d="M582 770v-140q0 -10 7 -17t17 -7h141q9 0 16 -7t7 -16v-118q0 -9 -7 -16t-16 -7h-141q-10 0 -17 -7t-7 -17v-141q0 -9 -7 -16t-16 -7h-118q-9 0 -16 7t-7 16v141q0 10 -7 17t-17 7h-140q-10 0 -17 7t-7 16v118q0 9 7 16t17 7h140q10 0 17 7t7 17v140q0 10 7 17t16 7h118
q9 0 16 -7t7 -17v0z" />
    <glyph glyph-name="up" unicode="U" 
d="M261 426q-5 4 -5 10q0 7 5 11l229 229q4 5 11 5q6 0 10 -5l229 -229q5 -4 5 -11q0 -6 -5 -10l-55 -55q-4 -5 -10 -5t-11 5l-163 163q-82 -82 -164 -163q-4 -5 -11 -5q-6 0 -10 5l-55 55v0z" />
    <glyph glyph-name="down" unicode="V" 
d="M256 611q0 6 4 11l55 55q5 4 11 4t11 -4l163 -164l163 164q5 4 11 4t11 -4l55 -55q4 -5 4 -11t-4 -11l-229 -229q-5 -4 -11 -4t-11 4l-229 229q-4 5 -4 11v0z" />
    <glyph glyph-name="left" unicode="W" 
d="M347 513q-4 4 -4 10q0 7 4 11l229 229q5 5 11 5t11 -5l55 -55q4 -4 4 -10q0 -7 -4 -11l-164 -164l164 -163q4 -5 4 -11t-4 -10l-55 -55q-5 -5 -11 -5t-11 5l-229 229v0z" />
    <glyph glyph-name="right" unicode="X" 
d="M653 536q4 -5 4 -11q0 -7 -4 -11l-229 -229q-5 -5 -11 -5t-11 5l-55 55q-4 4 -4 10q0 7 4 12q82 82 164 163l-164 163q-4 5 -4 11t4 11l55 54q5 5 11 5t11 -5l229 -228v0z" />
    <glyph glyph-name="home" unicode="Y" 
d="M871 458l-36 36l-46 -360q1 -17 -9 -27q-9 -9 -25 -9h-508q-15 3 -18 4q-6 2 -9 5t-5 10q-1 3 -4 17l-45 362l-20 -20q-8 -9 -12 -12q-5 -5 -9.5 -6.5t-11.5 -1.5q-25 0 -41 12q-15 13 -15 30q0 6 2 14q2 7 6 16l87 88l324 323q4 4 12 6q7 2 14 2q24 0 40 -26l276 -275
l31 -32l87 -87q2 -2 4 -8t2 -8q0 -27 -12 -42t-33 -15l-11 1q-11 2 -15 3zM455 269q0 -19 13 -33q13 -13 32 -13q18 0 32 13q14 14 14 33q0 18 -14 32q-14 13 -32 13q-19 0 -32 -13q-13 -14 -13 -32zM588 629q-37 36 -88 36t-87 -36q-37 -36 -37 -87t37 -87q36 -37 87 -37
t88 37q36 36 36 87t-36 87v0z" />
    <glyph glyph-name="pencil" unicode="Z" 
d="M784 934q28 -3 73 -49q46 -45 50 -75l-5 -18l-72 -75l-139 140l72 72q6 6 21 5zM787 674l-404 -407l-139 140l404 406zM356 240l-263 -126l124 264l139 -138v0z" />
    <glyph glyph-name="edit" unicode="a" 
d="M201 905q-161 0 -161 -161v-436q0 -163 161 -163h595q162 0 162 163v376l-80 -80v-296q0 -83 -82 -83h-595q-81 0 -81 83v436q0 81 81 81h426l79 80h-505zM841 879q-4 0 -7 -2l-68 -52l101 -129l67 54l6 15q0 24 -33 67q-32 42 -56 46q-6 1 -10 1zM726 794l-377 -289
l100 -130l378 291zM324 484l-130 -203l230 74z" />
    <glyph glyph-name="image" unicode="b" 
d="M926 874q36 -34 34 -98v-504q1 -28 -6.5 -52t-23.5 -41q-17 -18 -40 -27q-24 -9 -54 -8h-668q-59 -2 -93 30q-37 34 -35 98v504q-2 59 30 94q34 36 98 34h664q59 2 94 -30zM869 811q-13 14 -37 13h-664q-10 2 -19 -2q-10 -3 -17 -10t-10 -17q-3 -9 -2 -19v-504
q-1 -21 11.5 -35t33.5 -13h670q21 -1 33.5 13t11.5 35v504q1 22 -11 35zM669 580q5 -3 8 -8l139 -215q4 -4 4 -10q0 -9 -7 -16q-7 -8 -16 -7h-595q-6 -1 -14 5q-8 7 -8 17v4q1 4 2 6l205 357q3 5 9 8q4 3 9.5 3t9.5 -2q6 -2 9 -7l134 -187l-25 -38q-2 -3 -3 -6t-1 -7
q0 -8 7 -14.5t17 -6.5q5 0 9 3q2 2 9 8l68 105q10 7 11 8q3 2 8 2q7 0 11 -2v0z" />
    <glyph glyph-name="camera" unicode="c" 
d="M258 883q10 29 54 29h380q44 0 54 -29l34 -97h96q107 0 107 -105v-419q0 -106 -107 -106h-752q-106 0 -106 106v419q0 105 106 105h100zM499 708q87 0 149 -61q57 -56 63 -134v-17v-8q-3 -82 -63 -142q-62 -61 -149 -61q-88 0 -150 61q-62 64 -62 150q0 88 62 151
q62 61 150 61zM236 496q0 -108 77 -185q77 -76 186 -78q108 2 186 78q73 74 76 177v8v17q-6 98 -76 169q-78 77 -186 77q-109 0 -186 -77q-77 -76 -77 -186v0z" />
    <glyph glyph-name="music" unicode="d" 
d="M757 718q-151 0 -278 -34q-40 -11 -73 -23q-12 -6 -24 -11v-424q-16 -37 -57 -64q-40 -27 -85 -32q-48 -5 -81 18q-37 24 -45 78q-14 96 91 123q52 13 107 9v491q144 53 342 72q99 10 169 9l2 -266q1 -278 -2 -336q-1 -34 -33 -68q-30 -33 -73 -47q-46 -15 -84 0
q-43 17 -65 73q-38 98 72 137q55 20 117 20q-4 109 0 275v0z" />
    <glyph glyph-name="wifi" unicode="e" 
d="M259 477q-19 -13 -39 -11q-22 3 -35 21q-14 17 -11 39q3 21 21 35q131 100 306 101q170 0 303 -100q18 -13 21 -34q3 -22 -11 -40q-13 -17 -34 -21q-21 -2 -40 11q-105 78 -239 78q-139 0 -242 -79zM327 445q74 58 173 59q95 0 170 -57q18 -14 21 -35q2 -21 -10 -40
q-15 -16 -35 -20q-23 -2 -40 10q-47 36 -106 36q-62 1 -107 -36q-18 -12 -39 -10q-22 2 -35 18q-14 19 -12 41q3 21 20 34zM939 678q16 -13 20 -35q3 -21 -10 -38q-13 -19 -35 -22q-21 -3 -39 10q-164 121 -373 121q-215 0 -376 -123q-18 -13 -39 -10q-22 3 -35 21
q-14 17 -11 39q3 21 20 35q190 143 441 144q244 0 437 -142zM418 260q0 34 24 58t58 24t57 -24q25 -24 25 -58t-25 -58q-23 -22 -57 -22t-58 22q-24 24 -24 58v0z" />
    <glyph glyph-name="file" unicode="f" 
d="M614 771q0 -15 12 -25v0q12 -11 30 -11h123l-165 165v-129zM802 149v541h-146q-36 0 -60 22v1q-26 23 -26 58v151h-348q-9 0 -16 -7t-7 -16v-750q0 -9 7 -16v0q7 -7 16 -7h556q10 0 16 7v0q8 7 8 16zM840 728q6 -6 6 -16v-563q0 -28 -20 -48l1 1q-21 -21 -49 -21h-556
q-28 0 -48 21v-1q-20 20 -20 48v750q0 28 20 48t48 20h370q10 0 16 -6l2 -3l227 -227l3 -3v0z" />
    <glyph glyph-name="files" unicode="g" 
d="M262 730l-1 -4v-594q0 -9 6.5 -15.5t15.5 -6.5h441q8 0 15 6.5t7 15.5v140h-377q-21 0 -36 15t-15 35v426h-35q-9 0 -15 -6v-1q-5 -5 -6 -11zM176 835q-5 -5 -6 -12v-4v-593q0 -9 6 -16v0q6 -7 15 -7h42v523l2 14q3 12 12 22q15 14 36 14h35v65h-127q-9 0 -15 -6z
M654 788q-7 12 -7 27v123h-278q-9 0 -15.5 -6.5t-6.5 -15.5v-594q0 -8 6 -15q7 -7 16 -7h440q9 0 15 7t6 15v432h-118q-26 0 -45 17q-9 7 -13 17zM686 792q10 -10 26 -10h106l-142 143v-110q0 -11 6 -19zM662 966q2 0 5 -1t5 -3l184 -184q3 -3 3 -8v-1v-447q0 -20 -14 -35
h-1q-14 -15 -35 -15h-35v-140q0 -20 -14 -35h-1q-15 -15 -35 -15h-441q-21 0 -36 15q-14 15 -14 35v43h-42q-21 0 -35 15q-15 15 -15 36v593l2 15q3 11 12 21h1q14 15 35 15h127v46q0 20 15 35t36 15h293v0z" />
    <glyph glyph-name="folder" unicode="h" 
d="M46 644q-12 80 64 93q4 92 97 92h75q110 0 139 -7h1q30 -8 47 -39q17 -30 48 -43q15 -7 26 -7h263q95 0 97 -94q62 -17 51 -85l-40 -264q-10 -66 -96 -70h-623q-85 4 -95 70zM145 740h2h90q131 0 167 -7h1q37 -8 57 -39q21 -30 56 -42q18 -7 31 -7h306l14 -1
q-4 55 -63 55h-264h-1q-17 1 -37 9v0q-40 17 -64 58v1q-10 17 -26 22v0q-28 6 -132 6h-75q-59 0 -62 -55zM151 706l-7 -1q-20 0 -34 -6q-30 -14 -24 -55l48 -354q7 -46 70 -46h605q63 0 70 46q19 132 37 264q4 29 -13 44q-12 10 -34 13l-18 1h-303h-2q-18 1 -43 9h1
q-48 17 -76 56v1q-12 17 -32 22h1q-33 6 -156 6h-90v0z" />
    <glyph glyph-name="key" unicode="i" 
d="M876 652q0 -88 -54 -149q-59 -67 -160 -67q-5 0 -28 3q-24 4 -29 4q-6 0 -36 -32l-32 -35q-31 -1 -62 -1q-7 -52 0 -68q-16 7 -69 0q-8 -58 1 -74q-16 8 -77 0q-3 -25 -1 -58q-5 -22 -50 -22q-65 0 -100 44q-27 34 -27 79q4 26 16 50q141 140 281 281q-4 35 -4 45
q0 90 63 153t154 63q101 0 160 -67q54 -61 54 -149zM784 665q17 17 17 41.5t-17 42.5q-17 17 -41.5 17t-41.5 -17q-18 -18 -18 -42.5t18 -41.5q17 -18 41.5 -18t41.5 18v0z" />
    <glyph glyph-name="config" unicode="j" 
d="M383 949l-16 -42l-50 -7l-27 35l-57 -26l10 -43l-39 -34l-42 16l-34 -53l32 -31l-14 -49l-44 -10v-62l44 -10l14 -49l-32 -32l34 -52l42 16l39 -34l-10 -44l57 -26l27 36l50 -7l16 -42l62 9l3 44l46 22l36 -27l47 41l-21 39l28 43l44 -3l18 60l-39 21v51l39 22l-18 60
l-44 -3l-28 43l21 39l-47 41l-36 -27l-46 21l-3 45zM375.5 808q55.5 0 94.5 -39t39 -95t-39 -95t-94.5 -39t-95 39t-39.5 95t39.5 95t95 39zM699 515l-12 -32l-38 -5l-20 27l-43 -20l7 -33l-29 -25l-32 12l-25 -40l23 -24l-10 -37l-34 -7v-47l34 -7l10 -37l-23 -24l25 -40
l32 12l29 -25l-7 -33l43 -20l20 27l38 -5l12 -32l47 7l2 33l35 16l27 -20l36 31l-16 30l20 32l34 -2l14 45l-30 16v39l30 16l-14 45l-34 -2l-20 32l16 30l-36 31l-27 -20l-35 16l-2 33zM693 409q42 0 71.5 -29.5t29.5 -72t-29.5 -72t-71.5 -29.5t-71.5 29.5t-29.5 72
t29.5 72t71.5 29.5z" />
    <glyph glyph-name="chart" unicode="k" 
d="M932 682l-394 -122v414q133 -4 242 -84t152 -208zM852 495q0 -150 -107 -257q-107 -108 -259 -108q-151 0 -257 108q-107 107 -107 257q0 152 107 259q103 104 247 107v-381l363 114q13 -46 13 -99v0z" />
    <glyph glyph-name="trash" unicode="l" 
d="M386 966q-13 0 -23 -10q-10 -9 -10 -22v-88h-166q-8 0 -13.5 -5.5t-5.5 -13.5v-38q0 -8 5.5 -13.5t13.5 -5.5h608q8 0 13.5 5.5t5.5 13.5v38q0 8 -5.5 13.5t-13.5 5.5h-165v88q0 13 -10 22q-10 10 -23 10h-91h-4h-3h-113zM419 900h80h3h4h58v-54h-145v54zM187 739
l53 -562q2 -19 17 -33t32 -14h406q18 0 33 14q14 14 16 33l52 562h-609zM322 618h1v0h26q23 0 23 -25l14 -358q1 -20 -19 -20h-23q-19 0 -20 20l-23 358q-2 25 21 25zM477 618h1v0h26q23 0 23 -25l-5 -358q0 -20 -19 -20h-23q-20 0 -20 20l-4 358q-1 25 21 25zM632 618h1h27
q22 0 20 -25l-21 -358q-2 -20 -22 -20h-22q-20 0 -18 20l12 358q1 25 23 25z" />
    <glyph glyph-name="target" unicode="m" 
d="M574 597v1q-31 31 -74.5 31t-74.5 -31t-31 -74.5t31 -74.5v0q31 -31 74.5 -31t74.5 31v0q31 31 32 75q-1 43 -32 73zM537 561q16 -15 16 -37t-15.5 -37.5t-37.5 -15.5t-38 15q-15 16 -15 38t15 37q16 15 38 15t37 -15zM500 888q151 0 258 -107q106 -106 107 -257
q-1 -151 -107 -258q-107 -106 -258 -107q-151 1 -258 107q-107 107 -107 258t107 257q107 107 258 107zM688 712q-78 78 -188 78t-188 -78q-79 -78 -78 -188q-1 -110 78 -189q78 -78 188 -78t188 78q78 79 78 189t-78 188zM643 668q1 0 1 -1q60 -59 60 -143q0 -85 -60 -145
q-60 -59 -144 -59q-85 0 -144 59q-60 60 -60 145q-1 84 59 143q0 1 1 1q59 60 144 60q84 0 143 -60v0z" />
    <glyph glyph-name="list" unicode="n" 
d="M394 303q0 10 7 17q6 6 15 6h412q9 0 15 -6q7 -7 7 -17v-44q0 -10 -7 -18q-6 -6 -15 -6h-412q-9 0 -15 6q-7 8 -7 18v44zM156 365q7 7 17 7h137q8 0 16 -7q7 -8 7 -16v-136q0 -9 -7 -17q-8 -7 -16 -7h-137q-10 0 -17 7q-6 8 -6 17v136q0 8 6 16zM394 547q0 9 7 17
q6 6 15 6h412q9 0 15 -6q7 -8 7 -17v-45q0 -9 -7 -17q-6 -7 -15 -7h-412q-9 0 -15 7q-7 8 -7 17v45zM310 615q8 0 16 -6q7 -8 7 -16v-137q0 -9 -7 -16q-8 -7 -16 -7h-137q-10 0 -17 7q-6 7 -6 16v137q0 8 6 16q7 6 17 6h137zM416 722q-9 0 -15 6q-7 8 -7 18v44q0 10 7 17
q6 6 15 6h412q9 0 15 -6q7 -7 7 -17v-44q0 -10 -7 -18q-6 -6 -15 -6h-412zM156 852q7 7 17 7h137q8 0 16 -7q7 -8 7 -16v-136q0 -9 -7 -17q-8 -7 -16 -7h-137q-10 0 -17 7q-6 8 -6 17v136q0 8 6 16v0z" />
    <glyph glyph-name="download" unicode="o" 
d="M507 863q51 -29 83 -91q37 29 82.5 29t77.5 -25q38 -27 51 -68q9 -32 3 -66q55 -17 86 -60q33 -42 33 -98q0 -68 -48 -116q-50 -49 -117 -49h-97l-129 -125q-11 -10 -25 -10t-24 10l-129 125h-96q-69 0 -118 49q-48 48 -48 116q0 56 36 102q34 43 88 58q-16 78 16 139
q25 45 74 77q42 28 104 28q52 0 97 -25zM685 391h-90v173h-177v-173h-89l178 -172l178 172v0z" />
    <glyph glyph-name="upload" unicode="p" 
d="M500 862q52 -30 82 -91q38 29 83.5 29t77.5 -25q37 -27 50 -68q10 -32 3 -64q56 -18 87 -60q32 -42 32 -98q0 -68 -47 -117q-49 -49 -118 -49h-126v-99q0 -14 -10 -25q-10 -10 -25 -10h-177q-15 0 -25 10q-11 11 -11 25v99h-125q-69 0 -117 49q-49 49 -49 117
q0 56 35 100q35 43 88 59q-16 77 16 138q26 45 74 77q42 28 105 28q53 0 97 -25zM589 392h89q-89 85 -178 171l-178 -171h90v-172h177v172v0z" />
    <glyph glyph-name="cart" unicode="q" 
d="M805 645h-400q-4 0 -6 2q-3 2 -4 6l-10 40q-1 3 1 6q1 3 3 4q3 2 6 2h416q39 0 50 -31q10 -19 0 -57v0q-37 -135 -74 -269h-1q-15 -47 -62 -47h-6q-3 0 -6 1q-2 2 -3 5q-2 3 -1 5q1 5 1 11q-1 14 -4 25q-1 3 1 6q1 3 3 5q3 2 6 2h9q2 0 3 4q0 1 1 2l76 266v-1q1 8 1 13z
M570 375q20 21 49 20h1q30 1 52 -20q12 -13 17 -30v-1q3 -9 3 -19v-13q-4 -22 -20 -39l-1 -1q-21 -19 -51 -19t-51 19q-18 18 -20 40v2q-1 6 -1 10q0 11 3 20v1q5 17 18 29zM330 771l55 -201q0 1 -1 1q4 -9 0 -20l-2 -3q-7 -13 -21 -16h-4q-9 0 -17 3l-1 1q-9 5 -13 14
q-1 2 -1 4l-47 177v-1l-1 2q-2 1 -4 1h-107q-13 0 -22 9l-1 1q-8 8 -8 21v1q-1 11 8 20q9 11 23 11h134q9 0 18 -8q9 -6 12 -17zM188 674q10 31 51 31h1q3 0 5.5 -2t3.5 -5l12 -40q1 -3 0 -6t-4 -5t-6 -2h-7q0 -5 2 -12l75 -269q1 -3 3 -3h10q3 0 6 -2t4 -5t0 -6
q-4 -11 -4 -24v-2q-1 -5 0 -9q1 -3 0 -6q-2 -3 -4 -5q-3 -1 -6 -1h-6q-46 0 -59 44q-1 1 -1 3l-76 269v0q-10 38 0 57zM379 375q20 21 49 20h1q30 0 52 -21q13 -12 18 -29q2 -9 2 -21v-12q-3 -21 -20 -38l-2 -2q-21 -19 -50 -19q-30 0 -50 19h-1q-17 19 -20 41v1q-1 6 -1 10
q0 11 3 20v1q5 17 18 29l1 1v0z" />
    <glyph glyph-name="phone" unicode="r" 
d="M670 403l140 -162q6 -9 5 -19q0 -10 -8 -17l-30 -24q-31 -24 -34 -24q-37 -19 -62 -24q-41 -6 -83 19q-62 34 -128 109q-63 71 -116 163q-51 91 -80 181q-32 94 -30 165q2 45 28 76q19 21 65 48l75 20q10 4 19 -2q10 -5 13 -16l56 -212q3 -11 -2 -21q-6 -9 -16 -11
l-63 -18q-2 -14 -1 -31q3 -60 40 -125q37 -66 85 -99q20 -14 39 -19q1 1 52 46q8 6 19 6q11 -1 17 -9v0z" />
    <glyph glyph-name="email" unicode="s" 
d="M870 789q45 1 45 -45v-439q0 -46 -45 -46h-740q-45 0 -45 46v439q0 45 45 45h740zM862 741q-1 -3 -3 -4l-47 -33l-208 -146l261 -231q4 -4 4 -9t-4 -9t-9 -4t-9 3l-266 237l-81 -57q-2 0 -81 55l-259 -235q-3 -3 -8.5 -3t-9.5 4q-4 3 -4 8.5t4 9.5l256 231l-253 179
q-3 2 -3 4q-1 4 1 6q1 3 5 3q2 1 5 -1l347 -216l351 217q2 1 6 0q3 0 4.5 -2.5t0.5 -6.5zM885 744q0 15 -15 15h-740q-15 0 -15 -15v-439q0 -16 15 -16h740q15 0 15 16v439v0z" />
    <glyph glyph-name="tag" unicode="t" 
d="M879 850q5 -9 10 -27l12 -225v-8v-7q0 -23 -7 -39q-9 -19 -30 -35l-394 -395q-20 -17 -34 -24q-12 -5 -25 -5q-15 0 -30 9q-10 5 -28 20l-232 233q-16 13 -24 32q-6 14 -6 26q0 17 8 30q3 5 9 13l13 16l393 394l16 15q7 8 13 12q16 10 49 10h12l225 -12q16 -4 23 -7
q10 -4 16 -10t11 -16zM804 762q-4 10 -11 19q-16 22 -41 22q-14 0 -27.5 -5t-23.5 -14q-23 -19 -23 -49q0 -27 20 -44q8 -8 19 -12.5t22 -4.5q28 0 48.5 20t20.5 48q0 9 -4 20v0z" />
    <glyph glyph-name="out" unicode="u" 
d="M797 416v-102q0 -99 -99 -99h-514q-99 0 -99 99v390q0 100 99 100h390l-40 -62h-350q-37 0 -37 -38v-390q0 -37 37 -37h514q37 0 37 37v55q31 23 62 47zM440 510q-113 -57 -118 -108q6 96 74 172q85 98 242 108v151q138 -105 277 -210q-139 -107 -279 -213v135
q-83 23 -196 -35v0z" />
    <glyph glyph-name="book" unicode="v" 
d="M782 800h1q58 -14 97 -14h18q2 0 3.5 -1.5t1.5 -3.5v-554q0 -1 -1 -2q-1 -2 -2 -2l-2 -1l-18 1q-43 0 -107 15v0h-1q-67 17 -99 24q-51 10 -85 5q-41 -7 -72 -37l-12 -12q-2 -2 -4 -2t-3 2l-12 12q-31 30 -71 37q-36 5 -86 -5v0h-1l-98 -24q-65 -15 -108 -15l-17 -1l-4 1
q0 1 -1 2t-1 3v553q0 2 1.5 3.5t3.5 1.5h17q40 0 98 14q34 8 100 24h2h-1q60 12 102 6q44 -8 79 -36q36 28 81 36q41 6 101 -6q32 -6 100 -24zM772 756q-67 18 -99 24q-51 11 -85 5h-1q-32 -5 -57 -26v-465q23 13 51 18q41 6 101 -6q32 -6 100 -24h1q42 -10 75 -13v473
q-37 3 -85 14v0h-1zM414 785q-36 6 -86 -5v0h-1l-98 -24q-49 -11 -86 -14v-473q33 3 75 13l99 24h2q60 12 102 6q27 -5 50 -18v465q-25 21 -57 26v0z" />
    <glyph glyph-name="mic" unicode="w" 
d="M625 577v9q0 7 5 13q5 5 12.5 5t12.5 -5q5 -6 5 -13v-70v-2v-63q0 -68 -47 -115q-41 -41 -97 -46v-109h144v-1q6 0 11 -4q5 -6 5 -13t-5 -12t-11 -6h-320q-6 1 -10 5q-6 6 -6 13t6 13q4 4 10 4v1h144v109q-56 5 -96 46q-48 47 -48 115v135q0 7 6 13q5 5 12 5t12.5 -5.5
t5.5 -12.5v-70v-2v-63q0 -53 37 -89q36 -36 86 -38h2q51 2 86 38q37 36 37 89v126h1zM566 876q26 -26 26 -64v-354q0 -37 -26 -64q-27 -26 -64 -26q-38 0 -64 26q-26 27 -26 64v354q0 38 26 64.5t64 26.5q37 0 64 -27v0z" />
    <glyph glyph-name="micoff" unicode="x" 
d="M502 903q37 0 64 -27q26 -26 26 -64v-320l-180 180v140q0 38 26 64.5t64 26.5zM660 516v-2v-63q0 -13 -2 -26l-34 35v117v0v9q0 7 6 13q4 5 12 5t13 -5q5 -6 5 -13v-70zM186 803.5q0 10.5 7 17.5t17 7t18 -7l580 -580q7 -7 7 -17.5t-7 -17.5q-7 -8 -17.5 -8t-17.5 8
l-581 580q-6 7 -6 17.5zM376 514v-63q0 -53 37 -89q36 -36 86 -38h2q49 2 83 35l26 -26q-40 -38 -94 -43v-109h144v-1q6 0 11 -4q5 -6 5 -13t-5 -12t-11 -6h-320q-6 1 -10 5q-6 6 -6 13t6 13q4 4 10 4v1h144v109q-56 5 -96 46q-48 47 -48 115v135q0 7 6 12l30 -30v-52v-2z
M412 458v74l146 -146q-25 -18 -56 -18q-38 0 -64 26q-26 27 -26 64v0z" />
    <glyph glyph-name="attachment" unicode="y" 
d="M565 684l48 -48l-198 -198q-9 -11 -9 -24q0 -16 9 -26q13 -8 24 -8q9 0 23 8l270 273q31 27 31 70q0 45 -31 72q-27 29 -70 29q-45 0 -72 -29l-304 -302q-50 -49 -50 -119t50 -119q54 -49 120 -49q69 0 119 49l223 223l9 6q4 -3 9 -6l31 -32q4 -4 7 -9
q-115 -115 -230 -229q-69 -70 -168 -70q-98 0 -167 70t-69 166.5t69 166.5q152 151 304 303q49 50 119 50q65 0 119 -50q50 -51 50 -121t-50 -119l-272 -270q-29 -30 -70 -30q-42 0 -72 30q-29 28 -29 72q0 40 29 72l198 198v0z" />
    <glyph glyph-name="video" unicode="z" 
d="M158 746q-99 0 -99 -99v-243q0 -99 99 -99h431q99 0 99 99v243q0 99 -99 99h-431zM942 743l-220 -142v-156l220 -143v441z" />
    <glyph glyph-name="note" unicode="1" 
d="M486 927q146 -111 230 -269q30 -57 3 -112q-17 -33 -49 -27q-28 104 -107 182q-10 10 -21 17q31 -196 36 -394q2 -56 -35 -98q-88 -103 -215 -66q-74 21 -69 94q10 126 135 162q42 11 84 7q-28 238 -39 476q-1 17 18 21q14 5 29 7v0z" />
    <glyph glyph-name="bookmark" unicode="2" 
d="M708 855v-697q0 -18 -9 -22q-9 -5 -23 6l-142 114q-13 11 -31 11t-33 -11l-141 -114q-13 -11 -22 -6q-9 4 -9 22v697q0 17 13 27q11 13 27 13h329q18 0 29 -13q12 -10 12 -27v0z" />
    <glyph glyph-name="bookmark2" unicode="3" 
d="M40 776q0 128 128 128h292v-80h-292q-48 0 -48 -48v-504q0 -48 48 -48h664q48 0 48 48v504q0 48 -48 48h-5v80h5q128 0 128 -128v-504q0 -128 -128 -128h-664q-128 0 -128 128v504zM528 966h230q12 0 20 -9q9 -7 9 -19v-488q0 -12 -7 -15q-6 -3 -16 4l-99 80q-9 8 -22 8
q-12 0 -22 -8l-100 -80q-8 -7 -15 -4q-6 3 -6 15v488q0 12 9 19q7 9 19 9v0z" />
    <glyph glyph-name="lock" unicode="4" 
d="M637 572q0 61 -1 123v3l-2 26q-4 12 -8 25q-6 11 -12 23l-17 20l-19 16q-12 6 -24 13q-12 3 -25 7l-27 3l-27 -3q-13 -4 -25 -7q-12 -7 -24 -13q-9 -8 -19 -16l-17 -20q-6 -12 -12 -23l-8 -25l-2 -26v-1v-2v-123h269zM724 572h52v-442h-552v442h56v126q1 91 66 155
q64 65 156 65t156 -65q66 -65 66 -156v-125v0z" />
    <glyph glyph-name="openlock" unicode="5" 
d="M597 792q-10 9 -20 16q-9 6 -23 13q-13 5 -25 7q-13 3 -27 3t-27 -3q-13 -2 -26 -7q-12 -6 -23 -13q-9 -6 -19 -16t-17 -20q-7 -11 -12 -23t-8 -25q-3 -14 -3 -26v-1v-2v-95h-87v98q1 91 66 155q64 65 155.5 65t156.5 -65t65 -156v-34h-86q0 16 -1 32v3q0 13 -3 26
q-2 12 -7.5 24.5t-12.5 23.5q-6 10 -16 20zM776 130h-552v442h552v-442v0z" />
    <glyph glyph-name="bell" unicode="6" 
d="M494 905q-53 -1 -100 -22q-46 -21 -80 -57q-35 -37 -54 -83q-19 -49 -19 -101q1 -60 -3 -98q-5 -46 -21 -98q-6 -20 -20 -50l-27 -52q-17 -33 -25 -53q-11 -28 -13 -51v-3q-1 -1 -1 -2v-3h1q0 -2 1 -2q12 15 117 26q106 10 250 10q146 0 252 -11t115 -26q2 3 2 6v9h-1
q-2 22 -13 49q-8 19 -25 51q-24 48 -27 52q-14 30 -20 50q-16 52 -20 98q-5 38 -4 98q1 52 -19 101q-18 46 -54 83q-34 36 -80 57q-47 21 -99 22h-13zM499 218q-49 0 -94 -2h-24h-1q1 -4 1 -8q0 -6 2 -12l2 -8q2 -6 5 -11q0 -2 1 -4q10 -21 28 -41q15 -16 34 -26
q27 -14 61 -14t61 14q18 10 34 26q18 20 27 41q1 1 2 3l4 12l3 8l2 12v7h-1q-12 1 -24 1q-59 2 -123 2zM311 205q-56 -2 -100 -8q-70 -9 -71 -19q1 -8 71 -18q53 -6 123 -8q-1 0 -1 1q-12 18 -18 39v0zM713 204q0 -6 -3 -12q-6 -22 -17 -39l-1 -1q58 2 104 8q68 10 69 18
q-1 10 -69 19q-37 5 -83 7z" />
    <glyph glyph-name="callendar" unicode="7" 
d="M295 533q0 4 3 7t7 3h30q4 0 7 -3t3 -7t-3 -7t-7 -3h-30q-4 0 -7 3t-3 7zM223 533q0 4 3 7t7 3h30q4 0 7 -3t3 -7t-3 -7t-7 -3h-30q-4 0 -7 3t-3 7zM198 540q3 -3 3 -7t-3 -7t-7 -3h-30q-4 0 -7 3t-3 7t3 7t7 3h30q4 0 7 -3zM730 540q3 3 7 3h30q4 0 7 -3t3 -7t-3 -7
t-7 -3h-30q-4 0 -7 3t-3 7t3 7zM624 543q3 0 6 -3t3 -7t-3 -7t-6 -3h41q-4 0 -7 3t-3 7t3 7t7 3h-41zM521 543h30q4 0 7 -3t3 -7t-3 -7t-7 -3h-30q-4 0 -7 3t-3 7t3 7t7 3zM486 540q3 -3 3 -7t-3 -7t-7 -3h-25v-229h-93v229h16q-4 0 -7 3t-3 7t3 7t7 3h-16v126h-1
q-39 -20 -79 -40q-7 36 -15 73l106 55h82v-214h25q4 0 7 -3zM449 543h-41q3 0 6 -3t3 -7t-3 -7t-6 -3h41q-4 0 -7 3t-3 7t3 7t7 3zM538 677q-14 -5 -29 -15l-18 71q18 12 44 20q30 10 60 10q36 0 64 -12q24 -11 40 -31q15 -18 23 -43q7 -22 7 -48q0 -32 -10 -63
q-1 -6 -3 -12q-3 -5 -5 -11h-15q3 0 6 -3t3 -7t-3 -7t-6 -3h6l-2 -3l-5 -10q-14 -25 -35 -52l-67 -81v-1h142v-82h-253v62l46 60q30 38 77 106v1h-12q-4 0 -7 3t-3 7t3 7t7 3h23q8 15 12 29q9 26 9 49q0 29 -16 46q-15 18 -43 18q-20 0 -40 -8zM832 904q128 0 128 -128v-504
q0 -128 -128 -128h-664q-128 0 -128 128v504q0 128 128 128h664zM874 540q3 3 6 3v233q0 48 -48 48h-664q-48 0 -48 -48v-233q4 0 6 -3q3 -3 3 -7t-3 -7q-2 -2 -6 -3v-251q0 -48 48 -48h664q48 0 48 48v251q-3 1 -6 3q-3 3 -3 7t3 7zM839 543q4 0 7 -3t3 -7t-3 -7t-7 -3h-30
q-4 0 -7 3t-3 7t3 7t7 3h30v0z" />
    <glyph glyph-name="drawer" unicode="8" 
d="M180 517h133l102 -90h170l104 90h132l-165 220h-312zM669 797q6 0 8 -3l216 -265q11 -17 10 -37v-215q0 -25 -25 -25h-755q-25 0 -25 25v217q-2 18 11 35l215 265q3 3 8 3h337v0z" />
    <glyph glyph-name="undo" unicode="9" 
d="M144 642l326 286v-184q298 3 372 -214q71 -211 -131 -411q91 181 35 309q-55 128 -276 103v-189l-326 300v0z" />
    <glyph glyph-name="redo" unicode="0" 
d="M858 642l-326 286v-184q-298 3 -372 -214q-71 -211 131 -410q-91 180 -35 308q55 128 276 103v-189l326 300v0z" />
    <glyph glyph-name="fordward" unicode="|" 
d="M858 406l-326 -286v184q-298 -3 -372 214q-71 211 131 410q-91 -180 -35 -308q55 -128 276 -103v189l326 -300v0z" />
    <glyph glyph-name="replay" unicode="@" 
d="M142 406l326 -286v184q298 -3 372 214q71 211 -131 410q91 -180 35 -308q-55 -128 -276 -103v189l-326 -300v0z" />
    <glyph glyph-name="link" unicode="#" 
d="M388 499q-20 11 -39 -9q-79 -79 -160 -159q-24 -24 0 -49l78 -78q10 -10 21 -12q14 -2 28 12l160 160q13 14 12 28q-1 5 -4 11q21 20 41 41q4 -4 7 -8q41 -57 -15 -114q-80 -79 -160 -159q-49 -49 -100 -22q-15 7 -30 23l-78 78q-66 65 -1 130q80 80 160 159q60 61 121 9
q-20 -21 -41 -41zM429 393q-11 -10 -25 -10q-16 -1 -26 9.5t-10 26.5q0 14 10 25q107 106 214 214q10 10 25 11q15 -1 25.5 -11.5t11.5 -25.5q-1 -15 -11 -25zM872 809l16 -17q41 -57 -16 -114l-159 -159q-50 -50 -100 -23q-11 5 -21 15l41 41q5 -3 11 -4q14 -2 28 12
l159 159q14 15 13 29q-2 10 -13 20l-77 78q-25 25 -50 0l-159 -159q-19 -20 -8 -39l-41 -41q-52 60 8 121l159 159q65 65 131 0l78 -78v0z" />
    <glyph glyph-name="eye" unicode="&#xa2;" 
d="M354 524q0 -59 42 -102q44 -44 104.5 -44t102.5 44q44 43 44 102q0 61 -44 105q-42 42 -102.5 42t-104.5 -42q-42 -44 -42 -105zM106 528q398 428 789 -6q-391 -429 -790 0zM500 590q26 0 45 -19q21 -19 21 -47q0 -27 -21 -45q-19 -19 -45 -19q-27 0 -46 19
q-19 18 -19 45q0 28 19 47t46 19v0z" />
    <glyph glyph-name="eye2" unicode="&#x221e;" 
d="M159 524q173 -178 343 -180q169 2 338 178q-169 180 -338 182q-170 0 -343 -180zM889 538q6 -7 6 -16t-6 -16q-192 -210 -387 -209q-194 -1 -389 209q-7 7 -7 16v6q0 10 7 16q195 211 389 207q195 0 387 -213zM597 427h-2q-39 -41 -95 -41q-57 0 -98 41q-41 40 -41 97
t41 97q41 41 98 41q56 0 95 -41q44 -40 44 -97t-42 -97zM536 487q16 15 16 37q0 21 -16 37q-15 15 -36 15q-22 0 -38 -15q-15 -16 -15 -37q0 -22 15 -37q16 -15 38 -15q21 0 36 15v0z" />
    <glyph glyph-name="shuffle" unicode="&#xac;" 
d="M774 839l135 -134q-67 -68 -135 -135v76q-122 -2 -188 -45v0q-38 -29 -76 -102q-56 -105 -106 -141q-86 -68 -253 -68h-59v116q29 0 58 1q120 1 182 45q34 28 74 103v-1q54 104 113 143q87 64 255 67v75zM382 572l-2 -3l-8 -13q-21 31 -40 46q-62 44 -182 44h-58v118h59
q167 -1 253 -68q17 -13 35 -34q-29 -37 -57 -90zM544 498q20 -29 42 -45v0q66 -43 188 -46v71l71 -72v0v0l64 -63l-135 -135v82q-168 3 -255 66q-21 14 -41 36q29 38 58 93q4 7 8 13v0z" />
    <glyph glyph-name="refresh" unicode="&#xf7;" 
d="M632 791q110 -54 150 -171q35 -103 -3 -202q44 -21 89 -43l-198 -68l-67 198l95 -47q23 66 -1 133q-28 82 -105 120q-78 39 -159 11q-20 -7 -37 -17l-29 86q18 9 37 15h1q116 40 227 -15zM306 599q-28 -69 -3 -142q28 -81 105 -120q66 -32 137 -17q12 3 23 7q19 6 36 16
l29 -85q-18 -9 -37 -15l-21 -7q-106 -28 -207 21q-111 55 -150 171q-37 108 7 211l-94 46l198 67l67 -198q-45 23 -90 45v0z" />
    <glyph glyph-name="loop" unicode="&#x201c;" 
d="M695 766h27q128 0 128 -128v-230q0 -128 -128 -128h-277v-52v-41l-134 134l134 134v-41v-54h277q48 0 48 48v230q0 48 -48 48h-30l21 20q8 9 8 21.5t-8 20.5zM557 819v42l134 -134l-134 -134v43v50h-279q-48 0 -48 -48v-230q0 -48 48 -48h29l-18 -18q-9 -9 -9 -21.5
t9 -21.5l19 -19h-30q-128 0 -128 128v230q0 128 128 128h279v53v0z" />
    <glyph glyph-name="fontsize" unicode="&#x201d;" 
d="M309 258q17 23 61 124l192 451h18q115 -260 229 -521q23 -51 36 -64q14 -12 47 -16v-18h-234v18q40 4 52 8q11 6 11 26l-4 23l-49 125h-243l-43 -110l-6 -32q0 -23 18 -32q12 -6 44 -8v-18h-182v18q35 4 53 26zM307 699h12q37 -82 73 -165q-16 -36 -31 -72l-63 153
q-34 -83 -69 -165h127l-10 -24h-128l-28 -72l-4 -20q0 -15 12 -21q8 -3 29 -5v-11h-119v11q24 2 36 17q10 15 38 81q63 147 125 293zM452 374h10l6 -14q14 -33 24 -42q8 -7 30 -10v-11h-100q16 38 30 77zM546 704l-106 -253h212l-106 253v0z" />
    <glyph glyph-name="world" unicode="&#x2260;" 
d="M292 795q-49 -36 -60 -54h91q8 18 30 51q25 38 46 56l-35 -12q-23 -6 -72 -41zM343 631q-10 -46 -11 -79h135v135h-108q-7 -17 -16 -56zM194 687q-21 -44 -27 -63q-9 -25 -15 -72h126q0 19 6 60q8 46 18 75h-108zM342 888q76 32 158 32q79 0 147 -28q66 -27 140 -88
q32 -39 37 -46q23 -30 39 -60q43 -80 43 -174q0 -89 -38 -166q-26 -51 -81 -114q-55 -55 -130 -85t-157 -30q-97 0 -181 41q-53 26 -106 74q-56 54 -87 127q-32 73 -32 153q0 81 32 154q31 72 87 126t129 84zM165 431q15 -48 25 -62h110q-6 18 -13 53q-8 45 -8 76h-127
q-1 -18 13 -67zM357 369h110v129h-135q0 -18 7 -58q8 -44 18 -71zM747 763q-9 16 -72 52q-65 36 -91 37q26 -21 52 -56q25 -34 32 -55h100q-10 11 -21 22zM710 631q11 -47 9 -79h128q1 22 -12 65q-13 45 -29 70h-112q8 -19 16 -56zM609 741q-10 17 -34 45q-30 33 -54 47v-92
h88zM467 833q-15 -8 -40 -35q-29 -30 -43 -57h83v92zM581 371q61 4 65 13q5 16 9 31q6 22 9 49l2 17l1 17h-146v-129zM659 612q-10 47 -23 75h-115v-135h146q0 21 -8 60zM698 369h112q6 12 11 23q7 14 16 45q10 36 11 61h-127q0 -20 -6 -57q-7 -45 -17 -72zM634 251
q-31 -41 -52 -56q47 8 105 44q59 37 87 76h-99q-9 -24 -41 -64zM578 267q28 30 36 48h-93v-98q26 15 57 50zM467 315h-88q12 -25 36 -54q27 -34 52 -46v100zM278 265q27 -23 41 -30l29 -15q30 -14 48 -19q-14 10 -40 49q-28 40 -37 65h-93l8 -9q10 -12 19 -21q1 0 25 -20v0z
" />
    <glyph glyph-name="alarm" unicode="&#xb4;" 
d="M307 1010q-59 0 -101 -40q-40 -43 -40 -102q0 -41 19 -74q13 18 29 33q94 93 216 114q-9 15 -22 29q-42 40 -101 40zM699 1010q-60 0 -101 -40q-14 -14 -22 -29q121 -21 214 -114q16 -16 30 -33q21 32 21 74q0 59 -42 102q-41 40 -100 40zM498 900q-152 -2 -261 -110
q-109 -110 -109 -266t109 -266q111 -110 266 -110t265 110t110 266t-110 266t-265 110h-5zM503 848q134 0 228 -95q95 -95 95 -229.5t-95 -228.5q-94 -96 -228 -96t-229 96q-94 94 -94 228.5t94 229.5q95 95 229 95zM503 802q-7 0 -12 -5t-5 -12v-204v-2q-13 -4 -23 -14
q-16 -17 -16 -40.5t16 -39.5q17 -17 40 -17t41 17q14 15 16 35l4 1l130 38q7 2 10 8t2 13q-2 7 -8 10q-7 3 -13 1l-131 -38h-1q-4 6 -9 12q-11 10 -24 14v2v204q0 7 -5 12t-12 5z" />
  </font>
</defs>
</svg>
